<svg width="98" height="19" viewBox="0 0 98 19" fill="none" xmlns="http://www.w3.org/2000/svg">
<path d="M21.456 1.008V1.488C20.944 1.504 20.56 1.568 20.304 1.68C20.048 1.776 19.872 1.968 19.776 2.256C19.696 2.528 19.656 2.96 19.656 3.552V15.456C19.656 16.032 19.696 16.464 19.776 16.752C19.872 17.04 20.048 17.232 20.304 17.328C20.56 17.424 20.944 17.488 21.456 17.52V18C21.008 17.968 20.44 17.952 19.752 17.952C19.08 17.936 18.392 17.928 17.688 17.928C16.92 17.928 16.2 17.936 15.528 17.952C14.856 17.952 14.312 17.968 13.896 18V17.52C14.44 17.488 14.848 17.424 15.12 17.328C15.408 17.232 15.6 17.04 15.696 16.752C15.792 16.464 15.84 16.032 15.84 15.456V2.472H16.008L10.056 18.024H9.672L3.192 2.568V14.064C3.192 14.944 3.24 15.624 3.336 16.104C3.432 16.568 3.64 16.904 3.96 17.112C4.296 17.304 4.816 17.44 5.52 17.52V18C5.216 17.968 4.816 17.952 4.32 17.952C3.824 17.936 3.36 17.928 2.928 17.928C2.56 17.928 2.184 17.936 1.8 17.952C1.416 17.952 1.096 17.968 0.84 18V17.52C1.352 17.44 1.736 17.304 1.992 17.112C2.248 16.92 2.416 16.608 2.496 16.176C2.592 15.728 2.64 15.12 2.64 14.352V3.552C2.64 2.96 2.592 2.528 2.496 2.256C2.416 1.968 2.24 1.776 1.968 1.68C1.712 1.568 1.336 1.504 0.84 1.488V1.008C1.096 1.024 1.416 1.04 1.8 1.056C2.184 1.072 2.56 1.08 2.928 1.08C3.616 1.08 4.288 1.072 4.944 1.056C5.616 1.04 6.208 1.024 6.72 1.008L11.76 13.176L11.16 13.728L15.984 1.08C16.256 1.08 16.536 1.08 16.824 1.08C17.112 1.08 17.4 1.08 17.688 1.08C18.392 1.08 19.08 1.072 19.752 1.056C20.44 1.04 21.008 1.024 21.456 1.008ZM35.8982 1.008C35.8342 1.712 35.7862 2.392 35.7542 3.048C35.7382 3.704 35.7302 4.208 35.7302 4.56C35.7302 4.88 35.7382 5.184 35.7542 5.472C35.7702 5.76 35.7862 6 35.8022 6.192H35.2502C35.0902 5.024 34.8422 4.104 34.5062 3.432C34.1702 2.744 33.7302 2.264 33.1862 1.992C32.6582 1.704 32.0342 1.56 31.3142 1.56H30.3302C29.8662 1.56 29.5142 1.6 29.2742 1.68C29.0342 1.76 28.8742 1.92 28.7942 2.16C28.7142 2.4 28.6742 2.768 28.6742 3.264V15.744C28.6742 16.24 28.7142 16.608 28.7942 16.848C28.8742 17.088 29.0342 17.248 29.2742 17.328C29.5142 17.408 29.8662 17.448 30.3302 17.448H31.5062C32.2262 17.448 32.8582 17.296 33.4022 16.992C33.9622 16.672 34.4342 16.136 34.8182 15.384C35.2182 14.632 35.5222 13.616 35.7302 12.336H36.2822C36.2342 12.848 36.2102 13.52 36.2102 14.352C36.2102 14.72 36.2182 15.24 36.2342 15.912C36.2502 16.584 36.2982 17.28 36.3782 18C35.5622 17.968 34.6422 17.952 33.6182 17.952C32.5942 17.936 31.6822 17.928 30.8822 17.928C30.4822 17.928 29.9702 17.928 29.3462 17.928C28.7222 17.928 28.0502 17.936 27.3302 17.952C26.6102 17.952 25.8822 17.96 25.1462 17.976C24.4102 17.976 23.7142 17.984 23.0582 18V17.52C23.5702 17.488 23.9542 17.424 24.2102 17.328C24.4662 17.232 24.6342 17.04 24.7142 16.752C24.8102 16.464 24.8582 16.032 24.8582 15.456V3.552C24.8582 2.96 24.8102 2.528 24.7142 2.256C24.6342 1.968 24.4582 1.776 24.1862 1.68C23.9302 1.568 23.5542 1.504 23.0582 1.488V1.008C23.7142 1.024 24.4102 1.04 25.1462 1.056C25.8822 1.056 26.6102 1.064 27.3302 1.08C28.0502 1.08 28.7222 1.08 29.3462 1.08C29.9702 1.08 30.4822 1.08 30.8822 1.08C31.6182 1.08 32.4502 1.08 33.3782 1.08C34.3222 1.064 35.1622 1.04 35.8982 1.008ZM32.1542 9.216C32.1542 9.216 32.1542 9.296 32.1542 9.456C32.1542 9.616 32.1542 9.696 32.1542 9.696H27.9542C27.9542 9.696 27.9542 9.616 27.9542 9.456C27.9542 9.296 27.9542 9.216 27.9542 9.216H32.1542ZM32.8502 6.048C32.7862 6.96 32.7542 7.656 32.7542 8.136C32.7702 8.616 32.7782 9.056 32.7782 9.456C32.7782 9.856 32.7862 10.296 32.8022 10.776C32.8182 11.256 32.8582 11.952 32.9222 12.864H32.3702C32.2902 12.304 32.1382 11.784 31.9142 11.304C31.7062 10.824 31.4022 10.44 31.0022 10.152C30.6022 9.848 30.0822 9.696 29.4422 9.696V9.216C29.9222 9.216 30.3302 9.12 30.6662 8.928C31.0022 8.72 31.2742 8.456 31.4822 8.136C31.7062 7.8 31.8822 7.448 32.0102 7.08C32.1382 6.712 32.2342 6.368 32.2982 6.048H32.8502ZM44.2691 0.696C45.2131 0.696 45.9411 0.8 46.4531 1.008C46.9651 1.2 47.4051 1.408 47.7731 1.632C47.9651 1.744 48.1171 1.832 48.2291 1.896C48.3571 1.944 48.4771 1.968 48.5891 1.968C48.7491 1.968 48.8611 1.88 48.9251 1.704C49.0051 1.528 49.0691 1.264 49.1171 0.912H49.6691C49.6531 1.216 49.6291 1.584 49.5971 2.016C49.5811 2.432 49.5651 2.984 49.5491 3.672C49.5491 4.36 49.5491 5.264 49.5491 6.384H48.9971C48.9331 5.552 48.7411 4.744 48.4211 3.96C48.1011 3.176 47.6451 2.536 47.0531 2.04C46.4771 1.528 45.7651 1.272 44.9171 1.272C44.1491 1.272 43.5171 1.488 43.0211 1.92C42.5251 2.352 42.2771 2.952 42.2771 3.72C42.2771 4.36 42.4371 4.912 42.7571 5.376C43.0771 5.824 43.5411 6.264 44.1491 6.696C44.7731 7.128 45.5251 7.648 46.4051 8.256C47.1731 8.752 47.8611 9.248 48.4691 9.744C49.0771 10.24 49.5651 10.8 49.9331 11.424C50.3011 12.048 50.4851 12.792 50.4851 13.656C50.4851 14.712 50.2051 15.584 49.6451 16.272C49.1011 16.96 48.3811 17.48 47.4851 17.832C46.5891 18.168 45.6051 18.336 44.5331 18.336C43.5411 18.336 42.7491 18.24 42.1571 18.048C41.5651 17.856 41.0691 17.656 40.6691 17.448C40.3171 17.224 40.0451 17.112 39.8531 17.112C39.6931 17.112 39.5731 17.2 39.4931 17.376C39.4291 17.552 39.3731 17.816 39.3251 18.168H38.7731C38.8051 17.784 38.8211 17.336 38.8211 16.824C38.8371 16.312 38.8451 15.648 38.8451 14.832C38.8611 14 38.8691 12.952 38.8691 11.688H39.4211C39.4851 12.744 39.6611 13.736 39.9491 14.664C40.2531 15.576 40.7091 16.312 41.3171 16.872C41.9411 17.432 42.7651 17.712 43.7891 17.712C44.3491 17.712 44.8451 17.616 45.2771 17.424C45.7251 17.216 46.0851 16.912 46.3571 16.512C46.6291 16.112 46.7651 15.616 46.7651 15.024C46.7651 14.352 46.6051 13.768 46.2851 13.272C45.9811 12.776 45.5571 12.312 45.0131 11.88C44.4851 11.448 43.8691 11.008 43.1651 10.56C42.4131 10.064 41.7091 9.568 41.0531 9.072C40.3971 8.576 39.8691 8.008 39.4691 7.368C39.0851 6.728 38.8931 5.968 38.8931 5.088C38.8931 4.08 39.1411 3.256 39.6371 2.616C40.1491 1.96 40.8131 1.48 41.6291 1.176C42.4611 0.855999 43.3411 0.696 44.2691 0.696ZM59.9961 0.959999L65.8281 15.984C66.0521 16.56 66.3001 16.96 66.5721 17.184C66.8601 17.392 67.1161 17.504 67.3401 17.52V18C66.8601 17.968 66.2921 17.952 65.6361 17.952C64.9961 17.936 64.3481 17.928 63.6921 17.928C62.9561 17.928 62.2601 17.936 61.6041 17.952C60.9481 17.952 60.4281 17.968 60.0441 18V17.52C60.8601 17.488 61.3721 17.352 61.5801 17.112C61.8041 16.856 61.7561 16.32 61.4361 15.504L57.3561 4.344L57.7881 3.72L54.1401 13.224C53.7881 14.104 53.5721 14.824 53.4921 15.384C53.4281 15.944 53.4681 16.376 53.6121 16.68C53.7721 16.984 54.0201 17.2 54.3561 17.328C54.7081 17.44 55.1241 17.504 55.6041 17.52V18C55.0761 17.968 54.5721 17.952 54.0921 17.952C53.6121 17.936 53.1241 17.928 52.6281 17.928C52.2761 17.928 51.9401 17.936 51.6201 17.952C51.3161 17.952 51.0441 17.968 50.8041 18V17.52C51.1401 17.456 51.4841 17.24 51.8361 16.872C52.1881 16.504 52.5321 15.88 52.8681 15L58.3401 0.959999C58.5961 0.975999 58.8681 0.983999 59.1561 0.983999C59.4601 0.983999 59.7401 0.975999 59.9961 0.959999ZM61.6761 11.088V11.568H54.5241L54.7641 11.088H61.6761ZM75.0791 1.008V1.488C74.5351 1.504 74.1191 1.568 73.8311 1.68C73.5591 1.776 73.3751 1.968 73.2791 2.256C73.1831 2.528 73.1351 2.96 73.1351 3.552V15.744C73.1351 16.24 73.1671 16.608 73.2311 16.848C73.3111 17.088 73.4551 17.248 73.6631 17.328C73.8871 17.408 74.2151 17.448 74.6471 17.448H75.8231C76.3671 17.448 76.8791 17.32 77.3591 17.064C77.8391 16.808 78.2711 16.448 78.6551 15.984C79.0391 15.504 79.3591 14.936 79.6151 14.28C79.8711 13.624 80.0631 12.896 80.1911 12.096H80.7431C80.6951 12.64 80.6711 13.344 80.6711 14.208C80.6711 14.576 80.6791 15.112 80.6951 15.816C80.7111 16.52 80.7591 17.248 80.8391 18C80.0231 17.968 79.1031 17.952 78.0791 17.952C77.0551 17.936 76.1431 17.928 75.3431 17.928C74.9431 17.928 74.4311 17.928 73.8071 17.928C73.1831 17.928 72.5111 17.936 71.7911 17.952C71.0711 17.952 70.3431 17.96 69.6071 17.976C68.8711 17.976 68.1751 17.984 67.5191 18V17.52C68.0311 17.488 68.4151 17.424 68.6711 17.328C68.9271 17.232 69.0951 17.04 69.1751 16.752C69.2711 16.464 69.3191 16.032 69.3191 15.456V3.552C69.3191 2.96 69.2711 2.528 69.1751 2.256C69.0951 1.968 68.9191 1.776 68.6471 1.68C68.3911 1.568 68.0151 1.504 67.5191 1.488V1.008C67.9191 1.024 68.4551 1.04 69.1271 1.056C69.8151 1.072 70.5431 1.08 71.3111 1.08C72.0151 1.08 72.7031 1.072 73.3751 1.056C74.0631 1.04 74.6311 1.024 75.0791 1.008ZM90.207 0.959999L96.039 15.984C96.263 16.56 96.511 16.96 96.783 17.184C97.071 17.392 97.327 17.504 97.551 17.52V18C97.071 17.968 96.503 17.952 95.847 17.952C95.207 17.936 94.559 17.928 93.903 17.928C93.167 17.928 92.471 17.936 91.815 17.952C91.159 17.952 90.639 17.968 90.255 18V17.52C91.071 17.488 91.583 17.352 91.791 17.112C92.015 16.856 91.967 16.32 91.647 15.504L87.567 4.344L87.999 3.72L84.351 13.224C83.999 14.104 83.783 14.824 83.703 15.384C83.639 15.944 83.679 16.376 83.823 16.68C83.983 16.984 84.231 17.2 84.567 17.328C84.919 17.44 85.335 17.504 85.815 17.52V18C85.287 17.968 84.783 17.952 84.303 17.952C83.823 17.936 83.335 17.928 82.839 17.928C82.487 17.928 82.151 17.936 81.831 17.952C81.527 17.952 81.255 17.968 81.015 18V17.52C81.351 17.456 81.695 17.24 82.047 16.872C82.399 16.504 82.743 15.88 83.079 15L88.551 0.959999C88.807 0.975999 89.079 0.983999 89.367 0.983999C89.671 0.983999 89.951 0.975999 90.207 0.959999ZM91.887 11.088V11.568H84.735L84.975 11.088H91.887Z" fill="#33589F"/>
</svg>
